<?xml version="1.0" encoding="utf-8"?>
<!-- Generator: Adobe Illustrator 26.4.1, SVG Export Plug-In . SVG Version: 6.00 Build 0)  -->
<svg version="1.1" id="Layer_2_00000088841244123224415100000006180192304434792372_"
	 xmlns="http://www.w3.org/2000/svg" xmlns:xlink="http://www.w3.org/1999/xlink" x="0px" y="0px" viewBox="0 0 356.6 106.2"
	 style="enable-background:new 0 0 356.6 106.2;" xml:space="preserve">
<style type="text/css">
	.st0{fill:#2BA060;}
	.st1{fill:#F9C470;}
	.st2{fill:#FFFFFF;}
</style>
<g id="Layer_1-2">
	<g>
		<g>
			<g>
				<path class="st0" d="M48.7,37.2c-0.9-2.3-1.5-4.6-1.8-6.9C46,25,46.4,20,48.6,15.2c2-4.3,5.1-7.7,8.8-10.5
					c2.4-1.8,4.9-3.2,7.6-4.6c0.1-0.1,0.3-0.1,0.4-0.2c0.1,0.1,0.1,0.2,0.2,0.3C67.2,5,68.2,9.8,68,14.8c-0.4,6.4-3,11.8-7.6,16.3
					c-2.7,2.7-5.9,4.7-9.3,6.4c-0.1,0-0.1,0-0.4,0.1c2.2-5.4,4.2-10.7,6.3-16c2.1-5.3,4.2-10.6,6.3-15.9c0,0-0.1,0-0.2-0.1
					C58.3,16.2,53.5,26.7,48.7,37.2L48.7,37.2z"/>
				<path class="st0" d="M45,44.4c0,0.5-0.1,1-0.1,1.6c0,0.8-0.1,1.6-0.1,2.4c0,0.5-0.2,0.7-0.7,0.7c-2.2,0-4.3,0-6.5,0.1
					c-0.4,0-0.7-0.1-0.8-0.5c-0.2-0.5-0.5-1-0.7-1.5c-0.2-0.5-0.4-0.9-0.6-1.3c-0.8-1.7-1.5-3.3-2.3-4.9
					c-3.9-8.4-7.8-16.8-11.6-25.2c-0.1-0.2-0.2-0.4-0.3-0.5c0,0-0.1,0-0.1,0.1c3.2,8.5,6.5,17.1,9.7,25.6c0.6,1.6,1.2,3.3,1.9,4.9
					c0.4,1.1,0.8,2.2,1.3,3.3c-0.2,0-0.4,0-0.6,0c-4.3-0.2-8.5-0.7-12.8-1.5c-0.3,0-0.5-0.2-0.7-0.5c-0.2-0.2-0.3-0.5-0.5-0.8
					c-0.3-0.5-0.6-1-0.9-1.5c0,0,0-0.1-0.1-0.1c-0.7-1.2-1.3-2.3-1.8-3.5c-0.2-0.5-0.4-1-0.6-1.6c-2.1-5.7-2.5-11.7-1.8-18
					c0.5-4.7,1.7-9.1,3.3-13.6c0.1-0.3,0.2-0.6,0.7-0.4c6.8,3.1,13.1,7,18.1,12.6c5,5.6,7.8,12,8.5,19.3c0,0.5,0.1,1,0.1,1.6
					c0,0.2,0,0.3,0,0.5C45.1,42.5,45.1,43.4,45,44.4L45,44.4z"/>
				<path class="st1" d="M90.4,42.7c-3.1-1.2-6.3-1.8-9.6-2.3l1.7-2.7c0,0,0-0.1,0.1-0.1c2.4-4,4.8-8,7.2-11.9
					c0.2-0.4,0.5-0.4,0.8-0.4c4.1-0.5,7.2-4.4,6.6-8.4c-0.6-4.4-4.7-7.3-9.1-6.4c-4.2,0.9-6.8,5.2-5.6,9.5c0.1,0.4,0.1,0.6-0.2,0.9
					c-1.7,1.5-3.3,3-5,4.5c-4.1,3.7-8.2,7.5-12.3,11.2l0,0l-0.2,0.2l-0.1,0l-2.8,2.7c-4.7,0-10.2,0-15.5,0l0,0
					c0.1,0.5,0.1,1.1,0.2,1.7c0,0.2,0,0.4,0,0.5c0.1,1,0.1,2,0,3h9.8l-5.8,5.5L49,51.7c-0.5,0-0.9,0-1.3,0c-2.5,0-4.9-0.1-7.3-0.2
					c-2.8-0.1-5.6-0.3-8.4-0.4c-3.9-0.2-7.9-0.9-11.8-1.4c-1.9-0.2-3.8-0.5-5.6-1c-0.9-0.2-1.9-0.4-2.8-0.7
					c-0.4-0.1-0.9-0.3-1.3-0.4c-0.2-0.1-1-0.5-1.2-0.4c0.8-0.3,1.6-0.6,2.4-0.7c1.2-0.2,2.4-0.3,3.6-0.4c0.3,0,0.6-0.1,1-0.1
					c0-0.1-0.1-0.1-0.1-0.2c0,0-0.1-0.1-0.1-0.1c-0.8-1.2-1.4-2.4-2-3.6c-0.2-0.5-0.4-0.9-0.6-1.4c-2.9,0.4-5.7,1-8.4,2.1
					c-1.9,0.8-3.6,1.8-4.6,3.6C0,46.9,0,47.8,0,48.5s0.1,1.4,0.2,2.1c0.3,2,0.4,3.6,0.8,5.6c2.6,11,8.3,20.1,17.2,27.1
					C27,90,36.9,93.3,47.7,93.3c10.8,0.1,20.7-3.3,29.4-10.1c8.9-6.9,14.7-16,17.2-27.1c0.2-0.7,0.3-1.4,0.4-2c0,0,0-0.1,0-0.2
					c0.1-0.6,0.3-2.3,0.4-3.7c0,0,0,0,0-0.1c0-0.1,0-0.3,0-0.4c0-0.4,0.1-0.8,0.1-1.2c0-0.7,0-1.5-0.4-2.1
					C94,44.5,92.3,43.5,90.4,42.7L90.4,42.7z M83.8,46.5c0.8,0.1,1.6,0.4,2.4,0.7c-0.2-0.1-1,0.3-1.2,0.4c-0.4,0.1-0.9,0.3-1.3,0.4
					c-0.9,0.3-1.9,0.5-2.8,0.7c-1.8,0.4-3.7,0.7-5.6,1c-0.1,0-0.1,0-0.2,0c0.3-0.5,0.6-1,0.8-1.4c0.3-0.5,0.6-0.9,0.9-1.4
					c0.2-0.3,0.3-0.5,0.5-0.8l0.3-0.4c0.9,0.1,1.8,0.2,2.6,0.3C81.4,46.2,82.6,46.3,83.8,46.5z M89.7,14.3c1.7,0,3.1,1.4,3.1,3.1
					s-1.4,3.1-3.1,3.1s-3.1-1.4-3.1-3.1S87.9,14.3,89.7,14.3z M66.4,42.5c0.9-1,1.9-1.9,2.8-2.9c0.8-0.8,1.7-1.7,2.5-2.5
					c0,0,0.1-0.1,0.1-0.1c4.4-4.5,8.8-8.9,13.1-13.4c0.1,0,0.2,0.1,0.2,0.2c0.4,0.4,0.5,0.8,0.1,1.3C82.6,29,79.8,33,77,37.1
					c-0.1,0.1-0.1,0.2-0.2,0.3c-0.6,0.8-1.1,1.6-1.7,2.4c-0.7,1-1.4,2-2.1,3c-0.5,0.7-1,1.5-1.5,2.2c-0.2,0.3-0.5,0.7-0.7,1.1
					c-0.8,1.1-1.5,2.1-2.3,3.2c-0.4,0.5-0.7,1-1.1,1.5c-0.2,0-0.4,0-0.7,0.1c-1.1,0.1-2.2,0.2-3.3,0.3c-1.7,0.1-3.4,0.2-5.1,0.3
					c-0.2,0-0.4,0-0.6,0c0.5-0.5,1-1,1.5-1.5c1.7-1.7,3.4-3.5,5.1-5.2C65,43.9,65.7,43.2,66.4,42.5L66.4,42.5z M86.1,61.8
					c-3.8,9-10.8,16.8-19.6,21.2C54.9,89,40.6,89,29,83.2C18.5,78,10.6,68.1,7.4,56.9c-0.2-0.8-1.2-3.3-0.5-3.8
					c0.8-0.6,4.2,0.5,5.3,0.6c3.8,0.5,7.6,1,11.3,1.3c7.6,0.7,15.2,1.1,22.8,1.1c14.2,0.1,28.3-1,42.3-3.2
					C88.2,55.9,87.3,58.9,86.1,61.8L86.1,61.8z"/>
			</g>
			<path class="st1" d="M48.1,106.2c-7.6,0-15.1-1.5-21.8-4.4l2.5-5.7c11.8,5.2,26.5,5.2,39.2,0l2.3,5.8
				C63.3,104.8,55.7,106.2,48.1,106.2z"/>
		</g>
		<g>
			<g>
				<path class="st2" d="M131.4,30.2l10.2,23.3c0.5,1.1,0.9,2,1.3,2.6c0.3,0.6,0.7,1,1,1.3c0.3,0.2,0.7,0.4,1.1,0.5
					c0.1,0.4,0.2,0.7,0.2,1c0,0.3,0,0.7,0,1.1c-0.3,0-0.8,0-1.4-0.1c-0.6,0-1.3,0-2,0c-0.7,0-1.3,0-1.7,0c-0.4,0-0.8,0-1.3,0
					c-0.5,0-1,0-1.6,0c-0.5,0-1,0-1.4,0c-0.4,0-0.8,0-1,0c0-0.4,0-0.8,0.1-1.2s0.1-0.7,0.2-0.9c1.1-0.2,1.8-0.5,2-0.9
					c0.2-0.4,0-1.2-0.5-2.5l-5.5-13c-0.5-1-0.9-2-1.2-2.8c-0.3-0.8-0.7-1.8-1-2.9h0.4c-0.4,1.1-0.7,2.1-1,3s-0.6,1.8-0.9,2.6
					l-4.6,12c-0.6,1.5-0.8,2.6-0.5,3.3c0.2,0.7,0.9,1,2.1,1.2c0.1,0.3,0.2,0.6,0.2,1c0,0.3,0.1,0.7,0.1,1.1c-0.3,0-0.7,0-1.2-0.1
					c-0.5,0-1,0-1.5,0c-0.5,0-1,0-1.5,0c-0.7,0-1.4,0-2.1,0c-0.7,0-1.2,0.1-1.6,0.1c0-0.3,0-0.7,0.1-1.1s0.1-0.7,0.2-1
					c0.5-0.1,0.9-0.3,1.3-0.6c0.3-0.3,0.7-0.8,1-1.4c0.3-0.7,0.7-1.5,1.2-2.7l9-22.8c0.3-0.1,0.6-0.1,0.9-0.1
					C130.7,30.2,131,30.2,131.4,30.2L131.4,30.2z M134.8,48.5l0.5,2.1c-1.9,0-4,0-6.2,0.1c-2.2,0-4.2,0.1-6,0.2l0.7-2.3
					C123.8,48.5,134.8,48.5,134.8,48.5z"/>
				<path class="st2" d="M160.2,50h-3.4l-7.7-15c-0.5-0.9-0.9-1.6-1.4-2c-0.4-0.4-1.1-0.6-1.8-0.6c-0.1-0.3-0.2-0.7-0.2-1s0-0.7,0-1
					c0.4,0,0.9,0,1.5,0c0.6,0,1.1,0,1.7,0s1.2,0,1.7,0h2c0.8,0,1.5,0,2.2,0s1.3,0,1.8-0.1c0,0.4,0,0.7,0,1c0,0.3-0.1,0.6-0.2,1
					c-1.1,0.1-1.7,0.4-1.9,1c-0.1,0.5,0.1,1.4,0.7,2.6c0.7,1.4,1.5,3,2.4,4.8s1.7,3.7,2.5,5.6h-0.3c0.9-2,1.7-3.8,2.5-5.5
					c0.8-1.7,1.5-3.2,2.1-4.5c0.7-1.4,1-2.4,0.8-3c-0.2-0.5-0.9-0.9-2-1c-0.1-0.3-0.2-0.7-0.2-1s-0.1-0.7-0.1-1c0.6,0,1.2,0,2.1,0.1
					c0.8,0,1.6,0,2.2,0s1.3,0,2,0c0.7,0,1.3,0,1.8-0.1c0,0.4,0,0.7-0.1,1s-0.1,0.6-0.1,1c-0.7,0.2-1.4,0.6-2.1,1.3s-1.4,1.8-2.1,3.2
					L160.2,50L160.2,50z M160.9,48.3v4.2c0,1.5,0.1,2.6,0.2,3.3c0.2,0.7,0.5,1.2,1,1.4s1.2,0.4,2.2,0.6c0.1,0.3,0.2,0.6,0.2,1
					c0,0.3,0.1,0.7,0.1,1.1c-1,0-2-0.1-3.1-0.1s-2.1,0-3,0c-0.7,0-1.5,0-2.3,0c-0.8,0-1.6,0-2.3,0s-1.3,0-1.8,0c0-0.4,0-0.7,0.1-1.1
					c0-0.3,0.1-0.7,0.2-1c1.1-0.1,1.9-0.3,2.4-0.5c0.5-0.2,0.9-0.7,1-1.3s0.2-1.7,0.2-3.1v-4.6L160.9,48.3L160.9,48.3z"/>
				<path class="st2" d="M198.6,48c0,2.5-0.2,4.5-0.5,5.9c-0.3,1.5-1,2.7-2,3.7c-0.8,0.8-1.9,1.4-3.1,1.8s-2.6,0.6-4.1,0.6
					c-2.7,0-4.9-0.4-6.4-1.2s-2.7-2-3.3-3.5s-1-3.5-1-5.7V36.4c0-1.1-0.1-1.9-0.2-2.5s-0.4-0.9-0.8-1.1c-0.4-0.2-0.9-0.3-1.6-0.5
					c-0.1-0.3-0.1-0.7-0.2-1c0-0.4,0-0.7,0-1.1c0.6,0,1.3,0.1,2.3,0.1c0.9,0,1.9,0,2.9,0h1.4c0.5,0,1.1,0,1.6,0c0.5,0,1,0,1.4,0
					c0.5,0,0.9,0,1.2-0.1c0,0.4,0,0.7,0,1.1c0,0.4-0.1,0.7-0.2,1c-0.8,0.1-1.5,0.2-1.9,0.4c-0.4,0.2-0.7,0.6-0.8,1.1
					s-0.2,1.3-0.2,2.5V49c0,1.7,0.2,3.1,0.6,4.4c0.4,1.3,1.1,2.3,2.1,3.1c1,0.7,2.4,1.1,4.2,1.1c0.7,0,1.5-0.1,2.3-0.4
					s1.5-0.7,2.1-1.3c0.4-0.5,0.8-1,1-1.6c0.2-0.6,0.4-1.4,0.6-2.4s0.2-2.2,0.2-3.8V38c0-1.4-0.1-2.5-0.2-3.3
					c-0.1-0.8-0.4-1.3-0.8-1.7c-0.4-0.3-1.1-0.6-1.9-0.7c-0.1-0.4-0.1-0.8-0.2-1.1c0-0.3-0.1-0.6-0.1-1c0.4,0,0.8,0,1.3,0.1
					s1,0,1.5,0s1,0,1.4,0c0.7,0,1.4,0,2.2,0c0.8,0,1.4-0.1,2-0.1c0,0.3,0,0.5,0,0.9c0,0.3-0.1,0.7-0.2,1.2c-0.7,0.1-1.2,0.3-1.6,0.6
					c-0.4,0.3-0.6,0.9-0.8,1.7c-0.1,0.8-0.2,1.8-0.2,3.2L198.6,48L198.6,48z"/>
				<path class="st2" d="M228,60.1c-0.8-1.1-1.5-2.2-2.2-3.2s-1.4-2.2-2.2-3.5c-0.6-0.9-1.1-1.8-1.6-2.5c-0.5-0.8-1.1-1.5-1.9-2.2
					s-1.6-1.5-2.8-2.5l1.3,0.5c-0.8,0-1.5,0-2.1,0s-1.2,0-1.8,0l0-2.2c0.4,0.1,0.8,0.1,1.1,0.1c0.3,0,0.6,0,1,0c1.5,0,2.8-0.2,4-0.7
					c1.2-0.5,2.1-1.1,2.9-2.1c0.7-0.9,1.1-2.1,1.1-3.6c0-1.7-0.5-3.1-1.6-4.2s-2.8-1.6-5.2-1.6c-0.6,0-1.2,0-1.6,0.1
					c-0.5,0.1-1,0.2-1.6,0.3l0.2-1v21.9c0,1,0.1,1.8,0.3,2.4s0.5,1,0.9,1.2c0.4,0.2,1,0.3,1.8,0.4c0.1,0.3,0.1,0.6,0.2,1
					s0,0.8,0,1.1c-0.6-0.1-1.3-0.1-2-0.1c-0.7,0-1.4,0-2.1,0h-1.6c-0.8,0-1.7,0-2.8,0c-1,0-1.9,0-2.6,0.1c0-0.4,0-0.7,0-1.1
					s0.1-0.7,0.2-1c0.8-0.1,1.4-0.2,1.8-0.4c0.4-0.2,0.7-0.6,0.9-1.2s0.3-1.3,0.3-2.3V36.4c0-1-0.1-1.8-0.3-2.4s-0.5-0.9-0.9-1.2
					c-0.4-0.2-1-0.4-1.8-0.4c-0.1-0.3-0.1-0.7-0.2-1s0-0.7,0-1c0.4,0,0.8,0,1.4,0c0.6,0,1.2,0,1.9,0s1.4,0,1.9,0c0.8,0,1.7,0,2.7,0
					c0.9,0,1.8,0,2.6,0c0.8,0,1.4,0,1.8,0c2.6,0,4.6,0.3,6.1,1c1.5,0.6,2.6,1.5,3.2,2.6s1,2.3,1,3.7c0,1.5-0.3,2.8-0.9,3.9
					c-0.6,1.1-1.5,2-2.7,2.8c-1.2,0.8-2.6,1.3-4.2,1.6l0.4-0.5c0.7,0.4,1.3,0.9,1.8,1.3s0.9,0.9,1.4,1.4c0.4,0.5,0.9,1.1,1.4,1.8
					c0.5,0.7,1.1,1.6,1.7,2.6c0.8,1.1,1.5,2.1,2.1,2.8c0.7,0.7,1.4,1.3,2.1,1.6c0.8,0.3,1.7,0.5,2.7,0.6c0,0.4,0,0.8,0,1.1
					c0,0.3-0.1,0.7-0.2,1c-1.2,0-2.5,0-3.8,0.1S229,60,228,60.1L228,60.1z"/>
				<path class="st2" d="M247.7,60c-1-2.7-2.1-5.5-3.1-8.1s-2.1-5.2-3-7.7c-1-2.5-1.9-4.7-2.8-6.7c-0.6-1.4-1.1-2.5-1.4-3.2
					s-0.7-1.2-1-1.4c-0.3-0.2-0.7-0.4-1.3-0.5c-0.1-0.3-0.1-0.7-0.2-1.1c0-0.4,0-0.7,0-1c0.3,0,0.7,0,1.1,0.1c0.4,0,0.9,0,1.4,0
					c0.5,0,1,0,1.5,0h1.4c0.9,0,1.8,0,2.8,0c1,0,1.9-0.1,2.8-0.1c0,0.4,0,0.7-0.1,1.1s-0.1,0.7-0.2,1c-0.9,0.1-1.6,0.2-2,0.5
					c-0.4,0.2-0.6,0.7-0.5,1.3c0.1,0.6,0.4,1.6,0.9,2.9c0.8,1.8,1.5,3.6,2.2,5.4c0.7,1.8,1.4,3.7,2.1,5.6s1.4,3.8,2.1,5.9h-0.8
					c0.8-1.9,1.6-3.7,2.4-5.5s1.5-3.6,2.2-5.5s1.4-3.7,2.1-5.7c0.5-1.5,0.7-2.7,0.5-3.5s-0.9-1.3-2.2-1.5c-0.1-0.3-0.1-0.7-0.2-1
					c0-0.4-0.1-0.7,0-1c0.4,0,0.8,0,1.2,0.1c0.4,0,0.8,0,1.3,0s0.9,0,1.3,0c0.7,0,1.4,0,2.2,0s1.6-0.1,2.2-0.1c0,0.4,0,0.7-0.1,1.1
					c0,0.4-0.1,0.7-0.2,1c-0.9,0.2-1.6,0.7-2.1,1.6s-1.1,2-1.6,3.5c-1.4,3.7-2.9,7.4-4.4,11.1c-1.5,3.7-3.1,7.5-4.6,11.3
					c-0.3,0.1-0.6,0.1-1,0.1C248.4,60,248,60,247.7,60L247.7,60z"/>
				<path class="st2" d="M267.6,30.3c0.5,0,1,0,1.8,0.1s1.5,0,2.2,0s1.5,0,2.2,0h1.7v23c0,1.1,0.1,2,0.3,2.6c0.2,0.6,0.6,1,1.2,1.3
					c0.6,0.2,1.4,0.3,2.4,0.3l-0.3,2.2h-2.8c-1.1,0-2.2,0-3.3,0c-1.1,0-2.2,0-3.1,0c-1,0-1.7,0-2.2,0.1c0-0.4,0-0.8,0-1.2
					c0-0.4,0.1-0.7,0.2-0.9c0.8-0.1,1.4-0.2,1.8-0.5s0.7-0.7,0.9-1.3s0.3-1.5,0.3-2.6V36.4c0-1-0.1-1.8-0.3-2.4s-0.5-0.9-0.9-1.2
					s-1-0.4-1.8-0.4c-0.1-0.3-0.1-0.6-0.2-1C267.6,31.1,267.6,30.7,267.6,30.3L267.6,30.3z M287.7,30.3c0.1,0.6,0.1,1.4,0.2,2.3
					c0.1,0.9,0.2,1.7,0.3,2.5c0.1,0.8,0.2,1.5,0.4,2.2c-0.3,0.2-0.6,0.3-1,0.4c-0.4,0.1-0.8,0.1-1.3,0.1c-0.1-0.9-0.3-1.8-0.7-2.6
					c-0.4-0.8-1.1-1.5-2.1-2c-1-0.5-2.4-0.8-4.1-0.8h-4.8l1-2c2.2,0,4.2,0,5.8,0s3,0,4-0.1C286.4,30.3,287.2,30.3,287.7,30.3
					L287.7,30.3z M284.9,40.2c0,0.7,0,1.5-0.1,2.3c0,0.8,0,1.6,0,2.5s0,1.7,0,2.6c0,0.9,0,1.7,0.1,2.5c-0.4,0-0.8,0-1.2-0.1
					c-0.4,0-0.7-0.1-1.1-0.2c-0.1-1.4-0.5-2.4-1.1-3s-1.8-0.8-3.5-0.8h-3V44h3c1.7,0,2.9-0.2,3.6-0.7s1-1.4,1-2.7
					c0.4-0.1,0.8-0.2,1.2-0.3C284.1,40.2,284.5,40.2,284.9,40.2L284.9,40.2z M287.8,52.1c0.5,0.1,1,0.3,1.3,0.4
					c0.4,0.2,0.7,0.4,1,0.7c-0.3,1-0.6,2.1-0.8,3.3s-0.4,2.3-0.5,3.4c-0.6,0-1.4,0-2.4,0s-2.1,0-3.3,0c-1.2,0-2.5,0-3.8,0l0.3-2.2
					h0.4c1.9,0,3.4-0.2,4.4-0.6c1-0.4,1.8-1,2.3-1.8S287.4,53.3,287.8,52.1L287.8,52.1z"/>
				<path class="st2" d="M295.7,59.9c0-0.4,0-0.8,0-1.2c0-0.4,0.1-0.7,0.2-0.9c0.8-0.1,1.4-0.2,1.8-0.5s0.7-0.7,0.9-1.3
					s0.3-1.5,0.3-2.6V36.3c0-1-0.1-1.8-0.3-2.4s-0.5-0.9-0.9-1.2s-1-0.4-1.8-0.4c-0.1-0.3-0.1-0.6-0.2-1c0-0.4,0-0.8,0-1.1
					c0.5,0,1.1,0,1.9,0.1c0.8,0,1.5,0,2.4,0c0.8,0,1.6,0,2.3,0c0.8,0,1.6,0,2.5,0s1.7,0,2.6,0c1.5,0,3.1,0.1,4.6,0.3
					c1.6,0.2,3,0.6,4.4,1.2s2.6,1.4,3.7,2.4s1.9,2.4,2.6,4c0.6,1.6,0.9,3.7,0.9,6s-0.3,4.3-0.9,6c-0.6,1.7-1.3,3.1-2.3,4.2
					c-1,1.1-2,2-3.2,2.7c-1.2,0.7-2.4,1.2-3.6,1.6c-1.2,0.3-2.4,0.6-3.5,0.7c-1.1,0.1-2.1,0.2-2.8,0.2h-2.8c-1.1,0-2.2,0-3.3,0
					c-1.1,0-2.2,0-3.1,0C297,59.8,296.2,59.8,295.7,59.9L295.7,59.9z M307.5,57.6c1.5,0,3-0.2,4.3-0.6c1.3-0.4,2.5-1,3.5-2
					c1-0.9,1.8-2.2,2.4-3.8c0.6-1.6,0.8-3.7,0.8-6.2c0-2.3-0.3-4.3-1-5.9c-0.6-1.7-1.5-3-2.7-4c-1.1-1-2.4-1.7-3.8-2.2
					c-1.4-0.5-2.9-0.7-4.4-0.7c-0.6,0-1.3,0-2,0.2c-0.7,0.1-1.2,0.2-1.4,0.4l0.4-1.3v21.8c0,1.1,0.1,2,0.3,2.6
					c0.2,0.6,0.6,1,1.1,1.3C305.7,57.5,306.5,57.6,307.5,57.6L307.5,57.6z"/>
				<path class="st2" d="M341.6,30.2l10.2,23.3c0.5,1.1,1,2,1.3,2.6c0.3,0.6,0.7,1,1,1.3c0.3,0.2,0.7,0.4,1.1,0.5
					c0.1,0.4,0.2,0.7,0.2,1c0,0.3,0,0.7,0,1.1c-0.3,0-0.8,0-1.5-0.1c-0.6,0-1.3,0-2,0c-0.7,0-1.3,0-1.7,0c-0.4,0-0.8,0-1.3,0
					c-0.5,0-1,0-1.6,0c-0.5,0-1,0-1.5,0c-0.4,0-0.8,0-1,0c0-0.4,0-0.8,0.1-1.2s0.1-0.7,0.2-0.9c1.1-0.2,1.8-0.5,2-0.9
					c0.2-0.4,0-1.2-0.5-2.5l-5.5-13c-0.5-1-0.9-2-1.2-2.8s-0.7-1.8-1-2.9h0.4c-0.4,1.1-0.7,2.1-1,3s-0.6,1.8-0.9,2.6l-4.6,12
					c-0.6,1.5-0.8,2.6-0.5,3.3c0.2,0.7,0.9,1,2.1,1.2c0.1,0.3,0.2,0.6,0.2,1c0,0.3,0.1,0.7,0.1,1.1c-0.3,0-0.7,0-1.2-0.1
					c-0.5,0-1,0-1.5,0c-0.5,0-1,0-1.5,0c-0.7,0-1.4,0-2.1,0c-0.7,0-1.2,0.1-1.6,0.1c0-0.3,0-0.7,0.1-1.1s0.1-0.7,0.2-1
					c0.5-0.1,1-0.3,1.3-0.6c0.4-0.3,0.7-0.8,1-1.4s0.7-1.5,1.1-2.7l9-22.8c0.3-0.1,0.6-0.1,0.9-0.1
					C340.8,30.2,341.2,30.2,341.6,30.2L341.6,30.2z M345,48.5l0.5,2.1c-1.9,0-4,0-6.2,0.1c-2.2,0-4.2,0.1-6,0.2l0.7-2.3
					C334,48.5,345,48.5,345,48.5z"/>
			</g>
			<g>
				<path class="st2" d="M116.5,71h2.4v7.8h7.8V71h2.4v18.8h-2.4V81h-7.8v8.8h-2.4C116.5,89.8,116.5,71,116.5,71z"/>
				<path class="st2" d="M136.4,71H148v2h-9.2v5.9h7.8v2h-7.8v6.8h9.5v2h-11.9L136.4,71L136.4,71z"/>
				<path class="st2" d="M159.2,71h2.8l6.3,18.8h-2.6l-3.2-10.5c-0.7-2.1-1.3-4.2-1.9-6.3h-0.1c-0.6,2.2-1.2,4.2-1.9,6.3l-3.3,10.5
					h-2.5L159.2,71L159.2,71z M156.2,82.2h8.6v1.9h-8.6V82.2z"/>
				<path class="st2" d="M174.7,71h2.4v16.7h9.3v2h-11.6V71z"/>
				<path class="st2" d="M197.1,73.1h-6.2v-2h14.8v2h-6.2v16.7h-2.4L197.1,73.1L197.1,73.1z"/>
				<path class="st2" d="M210.9,71h2.4v7.8h7.8V71h2.4v18.8h-2.4V81h-7.8v8.8h-2.4V71z"/>
				<path class="st2" d="M248.2,80.4c0-6,3.5-9.7,8.4-9.7c2.3,0,4,1.1,5.1,2.3l-1.4,1.5c-1-1-2.2-1.7-3.8-1.7
					c-3.6,0-5.9,2.9-5.9,7.6s2.4,7.7,5.9,7.7c1.7,0,3-0.7,4.2-2.1l1.4,1.5c-1.5,1.7-3.3,2.7-5.8,2.7
					C251.8,90.2,248.2,86.5,248.2,80.4z"/>
				<path class="st2" d="M268.5,71h11.6v2H271v5.9h7.8v2H271v6.8h9.5v2h-11.9L268.5,71L268.5,71z"/>
				<path class="st2" d="M286.5,71h2.6l6,11.8l1.8,3.9h0.1c-0.1-1.9-0.3-4-0.3-5.9V71h2.3v18.8h-2.6l-6-11.8l-1.8-3.9h-0.1
					c0.1,1.9,0.3,3.9,0.3,5.9v9.8h-2.3V71L286.5,71z"/>
				<path class="st2" d="M310.4,73.1h-6.2v-2H319v2h-6.2v16.7h-2.4L310.4,73.1L310.4,73.1z"/>
				<path class="st2" d="M325.2,71h11.6v2h-9.2v5.9h7.8v2h-7.8v6.8h9.5v2h-11.9L325.2,71L325.2,71z"/>
				<path class="st2" d="M343.6,71h5.9c3.8,0,6.6,1.4,6.6,5.3s-2.8,5.6-6.6,5.6h-3.4v7.9h-2.4V71L343.6,71z M349.1,79.9
					c2.9,0,4.5-1.2,4.5-3.6s-1.6-3.3-4.5-3.3h-3.1v6.9L349.1,79.9L349.1,79.9z M350.9,80l5.7,9.8h-2.7l-4.9-8.6L350.9,80z"/>
			</g>
		</g>
	</g>
</g>
</svg>
